<svg width="21" height="19" viewBox="0 0 21 19" fill="none" xmlns="http://www.w3.org/2000/svg">
<path d="M18.7007 10.8591V9.15207C18.7007 4.71007 15.2217 0.991072 10.9457 0.862072C8.74168 0.811072 6.69468 1.59807 5.12968 3.11807C3.56268 4.63807 2.70068 6.67707 2.70068 8.85907V10.8591C1.59768 10.8591 0.700684 11.7561 0.700684 12.8591V16.8591C0.700684 17.9621 1.59768 18.8591 2.70068 18.8591H4.70068V8.85907C4.70068 7.22207 5.34668 5.69307 6.52168 4.55307C7.69568 3.41307 9.25668 2.81407 10.8847 2.86207C14.0927 2.95807 16.7007 5.78007 16.7007 9.15207V18.8591H18.7007C19.8037 18.8591 20.7007 17.9621 20.7007 16.8591V12.8591C20.7007 11.7561 19.8037 10.8591 18.7007 10.8591Z" fill="white"/>
</svg>
