<svg width="91" height="24" viewBox="0 0 91 24" fill="none" xmlns="http://www.w3.org/2000/svg">
<path d="M4 6.74814C4 5.50535 5.00742 4.49786 6.25013 4.49786H15.2506C16.4933 4.49786 17.5008 5.50535 17.5008 6.74814V21.2499C17.5008 21.5185 17.3572 21.7666 17.1243 21.9003C16.8914 22.0341 16.6048 22.0332 16.3728 21.8978L10.7504 18.6179L5.12797 21.8978C4.89599 22.0332 4.60936 22.0341 4.37648 21.9003C4.14359 21.7666 4 21.5185 4 21.2499V6.74814ZM15.2497 2C17.8732 2 20 4.12691 20 6.75058V18.6232C20 19.0374 19.6642 19.3733 19.25 19.3733C18.8357 19.3733 18.4999 19.0374 18.4999 18.6232V6.75058C18.4999 4.95543 17.0448 3.50018 15.2497 3.50018H6.63687C6.63687 3.50018 6.75016 2.94339 7.43379 2.41948C8.00023 2 8.60182 2 8.60182 2H15.2497Z" fill="#C9AC8C"/>
<path d="M24.75 2.5H34.225V6.075H34.1C34.1 3.275 33.875 2.85 31.6 2.85H30.025V18.875C30.025 19.775 30.45 19.875 31.25 19.875V20H27.75V19.875C28.525 19.875 28.975 19.775 28.975 18.875V2.85H27.4C25.1 2.85 24.875 3.275 24.875 6.075H24.75V2.5ZM40.3613 20.35C37.4863 20.35 35.3613 18.525 35.3613 15.6C35.3613 9.475 42.8613 8.9 46.2863 8.9V7.575C46.2863 5.4 45.8863 2.5 41.9363 2.5C40.1863 2.5 38.1113 3.45 37.3363 5.65L36.2363 5.3C37.1863 3.075 39.7113 2.15 41.8613 2.15C46.1113 2.15 47.3363 5 47.3363 7.15V16.425C47.3363 19.725 48.2113 20 48.8613 20C49.6863 20 50.4863 19.5 50.4863 18.35H50.8113C50.8113 19.125 50.3113 20.35 48.7613 20.35C47.1863 20.35 46.2863 18.975 46.2863 15.95V15.925C45.3613 18.225 43.6363 20.35 40.3613 20.35ZM46.2863 9.125C42.8113 9.125 36.4113 10.125 36.4113 15.6C36.4113 18.625 38.1113 20 40.3613 20C45.9613 20 46.2863 12.925 46.2863 11.025V9.125ZM48.8379 2.5H52.5629V2.65C51.7879 2.65 51.2129 2.75 51.5629 3.65L57.1879 18.3L62.3379 3.65C62.6379 2.775 62.0629 2.65 61.2879 2.65V2.5H64.2629V2.65C63.5379 2.65 63.0879 2.75 62.7879 3.4L56.8379 20.35L50.4629 3.675C50.1129 2.8 49.6129 2.65 48.8379 2.65V2.5ZM64.6426 15.6C64.6176 14.275 65.0676 12.925 66.0176 11.825L67.0176 12.475C66.1926 13.425 65.6426 14.55 65.6426 15.825C65.6176 17.975 67.0676 20 69.8176 20C73.1676 20 73.9176 17.525 73.9176 15.925C73.9176 11.8 65.7676 11.25 65.7676 6.125C65.7676 3.675 67.4426 2.175 69.9926 2.15H70.0676C71.8426 2.175 73.2676 2.975 73.9176 4.25L72.9926 5.55C72.9426 3.85 71.6676 2.525 70.0176 2.5C68.2426 2.525 66.8176 3.675 66.8176 5.95C66.8176 10.45 74.9676 11 74.9676 15.95C74.9676 17.65 73.6426 20.35 69.8176 20.35C66.8926 20.35 64.7176 18.425 64.6426 15.6ZM76.459 20V19.875C77.234 19.875 77.684 19.775 77.684 18.875V6.525C77.684 5.6 77.234 5.525 76.459 5.525V5.4H77.684C78.259 5.4 78.734 5.85 78.734 6.45V18.875C78.734 19.775 79.184 19.875 79.959 19.875V20H76.459ZM77.234 3.375C77.109 2.825 77.434 2.3 77.984 2.175C78.509 2.05 79.034 2.375 79.159 2.9C79.284 3.45 78.959 3.975 78.434 4.1C77.909 4.225 77.359 3.9 77.234 3.375ZM81.2139 20V19.875C81.9889 19.875 82.4389 19.775 82.4389 18.875V7.8C82.4389 4.875 84.8139 2.5 87.7389 2.5H89.9889V5.7H89.8639C89.8639 3.075 90.1139 2.875 88.1139 2.85H88.0639C85.5389 2.85 83.4889 4.9 83.4889 7.425V10.5H84.6889C86.9889 10.5 87.2139 10.425 87.2139 7.65H87.3389V13.7H87.2139C87.2139 10.925 86.9889 10.85 84.6889 10.85H83.4889V18.875C83.4889 19.775 83.9389 19.875 84.7139 19.875V20H81.2139Z" fill="#C9AC8C"/>
</svg>
