<svg width="25" height="25" viewBox="0 0 25 25" fill="none" xmlns="http://www.w3.org/2000/svg">
<path d="M10.9766 18.2214C12.8226 18.2214 14.5196 17.5864 15.8736 16.5334L20.2696 20.9294L21.6836 19.5154L17.2876 15.1194C18.3416 13.7644 18.9766 12.0674 18.9766 10.2214C18.9766 5.81044 15.3876 2.22144 10.9766 2.22144C6.56556 2.22144 2.97656 5.81044 2.97656 10.2214C2.97656 14.6324 6.56556 18.2214 10.9766 18.2214ZM10.9766 4.22144C14.2856 4.22144 16.9766 6.91244 16.9766 10.2214C16.9766 13.5304 14.2856 16.2214 10.9766 16.2214C7.66756 16.2214 4.97656 13.5304 4.97656 10.2214C4.97656 6.91244 7.66756 4.22144 10.9766 4.22144Z" fill="#3C2710"/>
<path d="M12.3884 8.80746C12.7674 9.18746 12.9764 9.68946 12.9764 10.2215H14.9764C14.9764 9.15646 14.5604 8.15246 13.8024 7.39346C12.2884 5.88146 9.66339 5.88146 8.15039 7.39346L9.56239 8.80946C10.3224 8.05146 11.6324 8.05346 12.3884 8.80746Z" fill="#3C2710"/>
</svg>
