<svg width="13" height="13" viewBox="0 0 13 13" fill="none" xmlns="http://www.w3.org/2000/svg">
<path d="M12.0376 5.09026C11.9602 4.86345 11.7556 4.70324 11.5168 4.68464L8.09609 4.41283L6.61584 1.13613C6.51924 0.920719 6.30503 0.782715 6.06923 0.782715C5.83342 0.782715 5.61921 0.920719 5.52261 1.13553L4.04236 4.41283L0.621648 4.68464C0.387041 4.70324 0.184834 4.85745 0.105031 5.07886C0.0252288 5.30026 0.0816307 5.54807 0.250236 5.71248L2.77812 8.17676L1.88409 12.0481C1.82889 12.2875 1.92549 12.5365 2.1277 12.6763C2.2309 12.7471 2.3497 12.7831 2.46911 12.7831C2.58491 12.7831 2.70132 12.7495 2.80212 12.6823L6.06923 10.5042L9.33633 12.6823C9.54514 12.8215 9.81935 12.8161 10.0234 12.6679C10.2262 12.5197 10.3156 12.2599 10.2466 12.0187L9.14913 8.17856L11.8708 5.72928C12.049 5.56847 12.1144 5.31766 12.0376 5.09026Z" fill="white"/>
</svg>
