<svg width="12" height="13" viewBox="0 0 12 13" fill="none" xmlns="http://www.w3.org/2000/svg">
<path d="M11.9683 4.96947C11.8909 4.74266 11.6863 4.58245 11.4475 4.56385L8.02676 4.29204L6.54651 1.01534C6.4499 0.799931 6.2357 0.661926 5.99989 0.661926C5.76408 0.661926 5.54988 0.799931 5.45327 1.01474L3.97302 4.29204L0.552312 4.56385C0.317705 4.58245 0.115498 4.73666 0.0356955 4.95807C-0.0441071 5.17947 0.0122948 5.42728 0.1809 5.59169L2.70878 8.05597L1.81475 11.9273C1.75955 12.1667 1.85616 12.4157 2.05836 12.5555C2.16157 12.6263 2.28037 12.6623 2.39977 12.6623C2.51558 12.6623 2.63198 12.6287 2.73278 12.5615L5.99989 10.3834L9.267 12.5615C9.4758 12.7007 9.75001 12.6953 9.95402 12.5471C10.1568 12.3989 10.2462 12.1391 10.1772 11.8979L9.07979 8.05777L11.8015 5.60849C11.9797 5.44768 12.0451 5.19687 11.9683 4.96947Z" fill="white"/>
</svg>
